{
    "asset" : {
        "generator" : "Khronos glTF Blender I/O v1.8.19",
        "version" : "2.0"
    },
    "scene" : 0,
    "scenes" : [
        {
            "name" : "Scene",
            "nodes" : [
                0
            ]
        }
    ],
    "nodes" : [
        {
            "mesh" : 0,
            "name" : "Rock",
            "translation" : [
                47.10352325439453,
                57.33633041381836,
                23.956771850585938
            ]
        }
    ],
    "meshes" : [
        {
            "name" : "Top",
            "primitives" : [
                {
                    "attributes" : {
                        "POSITION" : 0,
                        "NORMAL" : 1
                    },
                    "indices" : 2
                }
            ]
        }
    ],
    "accessors" : [
        {
            "bufferView" : 0,
            "componentType" : 5126,
            "count" : 388,
            "max" : [
                -16,
                120,
                43
            ],
            "min" : [
                -78.5,
                0,
                -77
            ],
            "type" : "VEC3"
        },
        {
            "bufferView" : 1,
            "componentType" : 5126,
            "count" : 388,
            "type" : "VEC3"
        },
        {
            "bufferView" : 2,
            "componentType" : 5123,
            "count" : 486,
            "type" : "SCALAR"
        }
    ],
    "bufferViews" : [
        {
            "buffer" : 0,
            "byteLength" : 4656,
            "byteOffset" : 0
        },
        {
            "buffer" : 0,
            "byteLength" : 4656,
            "byteOffset" : 4656
        },
        {
            "buffer" : 0,
            "byteLength" : 972,
            "byteOffset" : 9312
        }
    ],
    "buffers" : [
        {
            "byteLength" : 10284,
            "uri" : "data:application/octet-stream;base64,"
        }
    ]
}
