{
	"asset":{
		"generator":"Khronos glTF Blender I/O v4.2.69",
		"version":"2.0"
	},
	"scene":0,
	"scenes":[
		{
			"name":"Scene",
			"nodes":[
				0,
				1,
				2
			]
		}
	],
	"nodes":[
		{
			"mesh":0,
			"name":"Base",
			"translation":[
				0,
				0.17469105124473572,
				0
			]
		},
		{
			"mesh":1,
			"name":"Rock",
			"translation":[
				0,
				0.692878246307373,
				0.10858539491891861
			]
		},
		{
			"mesh":2,
			"name":"Logo",
			"rotation":[
				0,
				-0.7068266868591309,
				0,
				0.7073867321014404
			],
			"translation":[
				-0.25742781162261963,
				0.19689999520778656,
				-0.03340210020542145
			]
		}
	],
	"materials":[
		{
			"name":"Material_0",
			"pbrMetallicRoughness":{
				"baseColorFactor":[
					0.6038273572921753,
					0.6038273572921753,
					0.6038273572921753,
					1
				],
				"metallicFactor":0
			}
		}
	],
	"meshes":[
		{
			"name":"Base",
			"primitives":[
				{
					"attributes":{
						"POSITION":0,
						"NORMAL":1
					},
					"indices":2
				}
			]
		},
		{
			"name":"Top",
			"primitives":[
				{
					"attributes":{
						"POSITION":3,
						"NORMAL":4
					},
					"indices":5
				}
			]
		},
		{
			"name":"Mesh_0",
			"primitives":[
				{
					"attributes":{
						"POSITION":6,
						"NORMAL":7,
						"COLOR_0":8
					},
					"indices":9,
					"material":0
				}
			]
		}
	],
	"accessors":[
		{
			"bufferView":0,
			"componentType":5126,
			"count":24,
			"max":[
				0.24594180285930634,
				0.17628155648708344,
				0.4340352416038513
			],
			"min":[
				-0.24593676626682281,
				-0.17092685401439667,
				-0.43398579955101013
			],
			"type":"VEC3"
		},
		{
			"bufferView":1,
			"componentType":5126,
			"count":24,
			"type":"VEC3"
		},
		{
			"bufferView":2,
			"componentType":5123,
			"count":48,
			"type":"SCALAR"
		},
		{
			"bufferView":3,
			"componentType":5126,
			"count":388,
			"max":[
				0.1960846483707428,
				0.4100586175918579,
				0.26581835746765137
			],
			"min":[
				-0.1960844099521637,
				-0.34290599822998047,
				-0.487146258354187
			],
			"type":"VEC3"
		},
		{
			"bufferView":4,
			"componentType":5126,
			"count":388,
			"type":"VEC3"
		},
		{
			"bufferView":5,
			"componentType":5123,
			"count":486,
			"type":"SCALAR"
		},
		{
			"bufferView":6,
			"componentType":5126,
			"count":48720,
			"max":[
				0.29935410618782043,
				0.07821797579526901,
				0.004942038096487522
			],
			"min":[
				-0.18660853803157806,
				-0.14247076213359833,
				-0.007390935905277729
			],
			"type":"VEC3"
		},
		{
			"bufferView":7,
			"componentType":5126,
			"count":48720,
			"type":"VEC3"
		},
		{
			"bufferView":8,
			"componentType":5126,
			"count":48720,
			"type":"VEC3"
		},
		{
			"bufferView":9,
			"componentType":5123,
			"count":48720,
			"type":"SCALAR"
		}
	],
	"bufferViews":[
		{
			"buffer":0,
			"byteLength":288,
			"byteOffset":0,
			"target":34962
		},
		{
			"buffer":0,
			"byteLength":288,
			"byteOffset":288,
			"target":34962
		},
		{
			"buffer":0,
			"byteLength":96,
			"byteOffset":576,
			"target":34963
		},
		{
			"buffer":0,
			"byteLength":4656,
			"byteOffset":672,
			"target":34962
		},
		{
			"buffer":0,
			"byteLength":4656,
			"byteOffset":5328,
			"target":34962
		},
		{
			"buffer":0,
			"byteLength":972,
			"byteOffset":9984,
			"target":34963
		},
		{
			"buffer":0,
			"byteLength":584640,
			"byteOffset":10956,
			"target":34962
		},
		{
			"buffer":0,
			"byteLength":584640,
			"byteOffset":595596,
			"target":34962
		},
		{
			"buffer":0,
			"byteLength":584640,
			"byteOffset":1180236,
			"target":34962
		},
		{
			"buffer":0,
			"byteLength":97440,
			"byteOffset":1764876,
			"target":34963
		}
	],
	"buffers":[
		{
			"byteLength":1862316,
			"uri":"aggro3.bin"
		}
	]
}
