{
    "asset" : {
        "generator" : "Khronos glTF Blender I/O v1.8.19",
        "version" : "2.0"
    },
    "scene" : 0,
    "scenes" : [
        {
            "name" : "Scene",
            "nodes" : [
                0,
                1
            ]
        }
    ],
    "nodes" : [
        {
            "mesh" : 0,
            "name" : "Donut",
            "translation" : [
                -0.0005519561236724257,
                0.018021944910287857,
                0.012318362481892109
            ]
        },
        {
            "mesh" : 1,
            "name" : "Icing",
            "translation" : [
                -0.0005519561236724257,
                0.018021944910287857,
                0.012318362481892109
            ]
        }
    ],
    "materials" : [
        {
            "doubleSided" : true,
            "name" : "Material.002",
            "pbrMetallicRoughness" : {
                "baseColorTexture" : {
                    "index" : 0
                },
                "metallicFactor" : 0,
                "roughnessFactor" : 0.5
            }
        },
        {
            "doubleSided" : true,
            "name" : "Material.001",
            "pbrMetallicRoughness" : {
                "baseColorFactor" : [
                    0.7991030812263489,
                    0.36118048429489136,
                    0.6202383041381836,
                    1
                ],
                "metallicFactor" : 0,
                "roughnessFactor" : 0.1854599416255951
            }
        }
    ],
    "meshes" : [
        {
            "name" : "Torus.002",
            "primitives" : [
                {
                    "attributes" : {
                        "POSITION" : 0,
                        "NORMAL" : 1,
                        "TANGENT" : 2,
                        "TEXCOORD_0" : 3
                    },
                    "indices" : 4,
                    "material" : 0
                }
            ]
        },
        {
            "name" : "Torus.004",
            "primitives" : [
                {
                    "attributes" : {
                        "POSITION" : 5,
                        "NORMAL" : 6,
                        "TANGENT" : 7,
                        "TEXCOORD_0" : 8
                    },
                    "indices" : 9,
                    "material" : 1
                }
            ]
        }
    ],
    "textures" : [
        {
            "sampler" : 0,
            "source" : 0
        }
    ],
    "images" : [
        {
            "bufferView" : 5,
            "mimeType" : "image/png",
            "name" : "Donut Base"
        }
    ],
    "accessors" : [
        {
            "bufferView" : 0,
            "componentType" : 5126,
            "count" : 2881,
            "max" : [
                0.04618380591273308,
                0.023885903880000114,
                0.04443328082561493
            ],
            "min" : [
                -0.04979229345917702,
                -0.018839292228221893,
                -0.04947317764163017
            ],
            "type" : "VEC3"
        },
        {
            "bufferView" : 1,
            "componentType" : 5126,
            "count" : 2881,
            "type" : "VEC3"
        },
        {
            "bufferView" : 2,
            "componentType" : 5126,
            "count" : 2881,
            "type" : "VEC4"
        },
        {
            "bufferView" : 3,
            "componentType" : 5126,
            "count" : 2881,
            "type" : "VEC2"
        },
        {
            "bufferView" : 4,
            "componentType" : 5123,
            "count" : 15360,
            "type" : "SCALAR"
        },
        {
            "bufferView" : 6,
            "componentType" : 5126,
            "count" : 3242,
            "max" : [
                0.04743479564785957,
                0.025379672646522522,
                0.04585433751344681
            ],
            "min" : [
                -0.04958195611834526,
                -0.0017637130804359913,
                -0.05036012455821037
            ],
            "type" : "VEC3"
        },
        {
            "bufferView" : 7,
            "componentType" : 5126,
            "count" : 3242,
            "type" : "VEC3"
        },
        {
            "bufferView" : 8,
            "componentType" : 5126,
            "count" : 3242,
            "type" : "VEC4"
        },
        {
            "bufferView" : 9,
            "componentType" : 5126,
            "count" : 3242,
            "type" : "VEC2"
        },
        {
            "bufferView" : 10,
            "componentType" : 5123,
            "count" : 16320,
            "type" : "SCALAR"
        }
    ],
    "bufferViews" : [
        {
            "buffer" : 0,
            "byteLength" : 34572,
            "byteOffset" : 0
        },
        {
            "buffer" : 0,
            "byteLength" : 34572,
            "byteOffset" : 34572
        },
        {
            "buffer" : 0,
            "byteLength" : 46096,
            "byteOffset" : 69144
        },
        {
            "buffer" : 0,
            "byteLength" : 23048,
            "byteOffset" : 115240
        },
        {
            "buffer" : 0,
            "byteLength" : 30720,
            "byteOffset" : 138288
        },
        {
            "buffer" : 0,
            "byteLength" : 24076,
            "byteOffset" : 169008
        },
        {
            "buffer" : 0,
            "byteLength" : 38904,
            "byteOffset" : 193084
        },
        {
            "buffer" : 0,
            "byteLength" : 38904,
            "byteOffset" : 231988
        },
        {
            "buffer" : 0,
            "byteLength" : 51872,
            "byteOffset" : 270892
        },
        {
            "buffer" : 0,
            "byteLength" : 25936,
            "byteOffset" : 322764
        },
        {
            "buffer" : 0,
            "byteLength" : 32640,
            "byteOffset" : 348700
        }
    ],
    "samplers" : [
        {
            "magFilter" : 9729,
            "minFilter" : 9987
        }
    ],
    "buffers" : [
        {
            "byteLength" : 381340,
            "uri" : "data:application/octet-stream;base64,"
        }
    ]
}
