<svg xmlns="http://www.w3.org/2000/svg" width="30" height="30" viewBox="0 0 24 24"><path fill="currentColor" d="M12 0C5.4 0 0 5.4 0 12s5.4 12 12 12 12-5.4 12-12S18.6 0 12 0zM6 20.5c-2.2-1.6-3.8-3.9-4.3-6.7l6.1-2.3-1.8 9zM8.4 8.3l-.3 1.5-6.6 1.8C1.8 6 6.4 1.6 12 1.6s5.4 1.1 7.3 3c-1.1 0-2 .8-2.2 1.9v.8l-3.9 1.1c.5-2.6 1-4.8 1-4.8.2-.8-.6-1.2-1.2-.8l-3 2.6C8.6 6.6 8.5 7.8 8.5 8.3zM12 22.4c-.7 0-1.3 0-1.9-.2 2-1.8 4.8-4.4 5.2-4.6.8-.5 0-1.5-.6-1.1-.2.1-2.5 1.5-2.6 1.4-.2.1-.9.1-.7-.8 0-.5.8-4.2 1.5-7.6l4.4-1.7c.3.6.9 1.1 1.7 1.2 1.1.2 2.1-.5 2.5-1.5.6 1.3 1 2.8 1 4.4 0 5.8-4.7 10.4-10.4 10.4z"></path></svg>